<?xml version="1.0" encoding="utf-8"?>
<!-- Generator: Adobe Illustrator 17.0.0, SVG Export Plug-In . SVG Version: 6.00 Build 0)  -->
<!DOCTYPE svg PUBLIC "-//W3C//DTD SVG 1.1//EN" "http://www.w3.org/Graphics/SVG/1.1/DTD/svg11.dtd">
<svg version="1.1" id="Layer_1" xmlns="http://www.w3.org/2000/svg" xmlns:xlink="http://www.w3.org/1999/xlink" x="0px" y="0px"
	 width="50px" height="50px" viewBox="0 0 50 50" enable-background="new 0 0 50 50" xml:space="preserve">
<path d="M25.009,8.743c-0.028-0.011-0.056-0.021-0.085-0.027c-0.009-0.001-0.017-0.007-0.025-0.008
	c-0.023-0.003-0.043,0.003-0.065,0.003c-0.022,0-0.043-0.006-0.065-0.003c-0.009,0.001-0.017,0.007-0.025,0.008
	c-0.029,0.006-0.057,0.017-0.085,0.027c-0.028,0.011-0.057,0.021-0.083,0.037c-0.022,0.014-0.041,0.031-0.061,0.049
	c-0.025,0.022-0.049,0.042-0.069,0.067c-0.016,0.019-0.025,0.04-0.037,0.062c-0.018,0.032-0.036,0.063-0.047,0.099
	c-0.002,0.007-0.007,0.012-0.009,0.018c-0.004,0.009-1.086,4.088-2.491,8.494c-1.378,4.383-3.188,9.177-4.297,10.238
	c-0.195,0.195-0.195,0.514,0.002,0.707c0.194,0.195,0.512,0.195,0.706,0c1.454-1.502,3.103-6.185,4.541-10.642
	c0.578-1.814,1.103-3.573,1.521-5.019v27.84c0,0.277,0.224,0.501,0.501,0.501c0.277,0,0.501-0.224,0.501-0.501v-27.84
	c0.418,1.445,0.942,3.204,1.521,5.019c1.438,4.457,3.087,9.14,4.541,10.642c0.194,0.195,0.512,0.195,0.706,0
	c0.197-0.193,0.197-0.512,0.002-0.707c-1.109-1.062-2.919-5.855-4.297-10.238c-1.405-4.406-2.487-8.485-2.491-8.494
	c-0.002-0.007-0.007-0.012-0.009-0.018c-0.011-0.035-0.028-0.066-0.047-0.099c-0.012-0.022-0.021-0.043-0.037-0.062
	c-0.021-0.025-0.044-0.046-0.069-0.067c-0.021-0.018-0.039-0.035-0.062-0.049C25.065,8.764,25.037,8.754,25.009,8.743z"/>
</svg>
